<?xml version="1.0" encoding="UTF-8"?>
<svg version="1.1" xmlns="http://www.w3.org/2000/svg" width="200" height="150">
<path d="M0 0 C0.66 0 1.32 0 2 0 C4.053884 3.45550562 6.08332978 6.92410169 8.09130859 10.40649414 C8.77746262 11.58870803 9.47013574 12.76716346 10.16943359 13.94165039 C11.17436309 15.63201899 12.15394906 17.33737336 13.1328125 19.04296875 C14.02830811 20.57473755 14.02830811 20.57473755 14.94189453 22.13745117 C16 25 16 25 15.39257812 27.48974609 C14.70325195 28.73232178 14.70325195 28.73232178 14 30 C13.48228027 30.96220459 12.96456055 31.92440918 12.43115234 32.91577148 C11.517771 34.50240601 11.517771 34.50240601 10.5859375 36.12109375 C10.25260406 36.70230484 9.91927063 37.28351593 9.57583618 37.88233948 C8.51193495 39.73582902 7.4435914 41.58671132 6.375 43.4375 C5.68068681 44.64500825 4.98667405 45.8526893 4.29296875 47.06054688 C2.9060687 49.47463122 1.51754655 51.8877716 0.12792969 54.30029297 C-3.26329277 60.19146264 -6.63077713 66.0962309 -10 72 C-9.33680756 71.99254257 -8.67361511 71.98508514 -7.99032593 71.97740173 C-1.07908402 71.90851782 5.8301954 71.90253615 12.74169922 71.93286133 C15.31985526 71.93594098 17.89808232 71.92305333 20.47607422 71.89379883 C24.18591449 71.85448453 27.89170921 71.87284964 31.6015625 71.90234375 C32.75177887 71.87776596 33.90199524 71.85318817 35.08706665 71.8278656 C42.92227523 71.96809427 42.92227523 71.96809427 46.01095581 74.92546082 C47.5650602 77.22507353 48.80215748 79.49930086 50 82 C50.84160306 83.44205667 51.69167428 84.87924728 52.5546875 86.30859375 C53.33181562 87.6828153 54.10529811 89.05910529 54.875 90.4375 C55.47828125 91.49614258 55.47828125 91.49614258 56.09375 92.57617188 C59 97.75107621 59 97.75107621 59 100 C21.05 100 -16.9 100 -56 100 C-55.14240421 95.71202106 -54.50390596 93.75505043 -52.3671875 90.17578125 C-51.81619385 89.24330566 -51.2652002 88.31083008 -50.69750977 87.35009766 C-49.79536743 85.84648682 -49.79536743 85.84648682 -48.875 84.3125 C-47.58913841 82.13974019 -46.30400648 79.96654843 -45.01953125 77.79296875 C-44.3538916 76.67067871 -43.68825195 75.54838867 -43.00244141 74.39208984 C-39.81524868 68.99305841 -36.68876161 63.5594669 -33.5625 58.125 C-32.30867254 55.94917334 -31.05476577 53.77339239 -29.80078125 51.59765625 C-29.1763916 50.51371582 -28.55200195 49.42977539 -27.90869141 48.31298828 C-25.97514555 44.95685919 -24.04053831 41.60134452 -22.10546875 38.24609375 C-21.46561035 37.1365332 -20.82575195 36.02697266 -20.16650391 34.88378906 C-18.90279671 32.69379254 -17.63816906 30.50432685 -16.37255859 28.31542969 C-13.4559442 23.26967904 -10.55179604 18.21798196 -7.68359375 13.14453125 C-7.17473633 12.24984131 -6.66587891 11.35515137 -6.14160156 10.43334961 C-5.19600784 8.76966986 -4.25622384 7.10266992 -3.32324219 5.43188477 C-2.2715492 3.58813293 -1.14389583 1.78801043 0 0 Z " fill="#40AABF" transform="translate(56,50)"/>
<path d="M0 0 C9.57 0 19.14 0 29 0 C77.75 84.5 77.75 84.5 79.6262207 87.75219727 C80.8720577 89.91159395 82.11798818 92.07093669 83.36401367 94.23022461 C86.55348953 99.75767597 89.74116885 105.28615121 92.92578125 110.81640625 C93.571521 111.93716553 94.21726074 113.0579248 94.88256836 114.21264648 C96.15358748 116.41880124 97.42394941 118.62533478 98.69360352 120.83227539 C101.48485361 125.67627672 104.2908789 130.50875119 107.1640625 135.3046875 C107.63739014 136.09673584 108.11071777 136.88878418 108.59838867 137.70483398 C109.46242158 139.14541391 110.33198539 140.58269773 111.20825195 142.01586914 C114 146.66998719 114 146.66998719 114 150 C106.9003777 150.59943853 99.83271921 150.93853483 92.70703125 150.76171875 C91.53889893 150.73553467 90.3707666 150.70935059 89.16723633 150.68237305 C85.13891778 149.81448202 83.72189029 148.31480011 81.1875 145.125 C80.42206952 143.22582707 79.66431282 141.32242481 78.97851562 139.39306641 C76.8761367 134.25147005 73.76964832 129.57711905 70.9375 124.8125 C69.6197847 122.52959804 68.30604314 120.24439821 66.99609375 117.95703125 C63.1744392 111.29869245 59.33813996 104.64884558 55.5 98 C54.24993888 95.83336859 52.999939 93.66670186 51.75 91.5 C51.13125 90.4275 50.5125 89.355 49.875 88.25 C29.25 52.5 29.25 52.5 27.37207031 49.24487305 C26.13189239 47.09526366 24.89165873 44.94568642 23.65136719 42.79614258 C20.7264977 37.72690788 17.80219167 32.65735064 14.87988281 27.5866394 C13.50193062 25.19573403 12.12365828 22.80501328 10.74536133 20.41430664 C9.77459018 18.73016037 8.80428126 17.04574769 7.83398438 15.36132812 C6.94936523 13.82702148 6.94936523 13.82702148 6.046875 12.26171875 C5.52963867 11.36412842 5.01240234 10.46653809 4.47949219 9.54174805 C3.45173775 7.7760795 2.39259918 6.02845695 1.30957031 4.29614258 C0 2 0 2 0 0 Z " fill="#40AABF" transform="translate(86,0)"/>
<path d="M0 0 C2.98885268 2.77737346 5.01050908 5.43928991 6.9609375 9.015625 C7.50741943 10.0068335 8.05390137 10.99804199 8.61694336 12.01928711 C9.19710205 13.08542236 9.77726074 14.15155762 10.375 15.25 C11.63231524 17.52833766 12.89147654 19.80565738 14.15234375 22.08203125 C14.47278152 22.66155045 14.7932193 23.24106964 15.12336731 23.83815002 C18.30974153 29.5881411 21.610649 35.26798944 24.9375 40.9375 C26.10428696 42.92831492 27.2709525 44.919201 28.4375 46.91015625 C29.31341797 48.40506592 29.31341797 48.40506592 30.20703125 49.93017578 C33.30437038 55.2332725 36.37113858 60.55394935 39.4375 65.875 C40.06003662 66.95515381 40.68257324 68.03530762 41.32397461 69.14819336 C42.58576826 71.33796334 43.84740534 73.52782355 45.10888672 75.71777344 C48.85143641 82.21336316 52.59900243 88.70606042 56.34619141 95.19897461 C59.28182759 100.28625032 62.21616612 105.37426104 65.14590454 110.4649353 C66.53328095 112.87543748 67.92139624 115.28551376 69.30957031 117.69555664 C70.29173815 119.40143968 71.27283385 121.10793986 72.25390625 122.81445312 C72.846875 123.84376953 73.43984375 124.87308594 74.05078125 125.93359375 C74.83449097 127.2956897 74.83449097 127.2956897 75.6340332 128.68530273 C76.69977966 130.49126201 77.83680752 132.25521129 79 134 C79 134.99 79 135.98 79 137 C74.45943197 137.26200753 69.92080597 137.42142326 65.375 137.5625 C64.08980469 137.63791016 62.80460937 137.71332031 61.48046875 137.79101562 C52.22025081 138.00692744 52.22025081 138.00692744 48.97363281 135.32788086 C47.36687832 132.96360399 46.18486583 130.60010886 45 128 C44.03257261 126.30444579 43.05305648 124.6157405 42.0625 122.93359375 C41.03869772 121.10321999 40.01799951 119.27110743 39 117.4375 C34.47058863 109.35061753 29.87578837 101.30832514 25.1875 93.3125 C20.06750526 84.57396474 15.01363931 75.7997936 10 67 C4.74996333 57.78793905 -0.53412462 48.59726852 -5.875 39.4375 C-6.75865234 37.9205957 -6.75865234 37.9205957 -7.66015625 36.37304688 C-9.71132661 32.862671 -11.7442292 29.3836562 -14 26 C-13.83291872 20.88545638 -10.70120332 16.68860039 -8.125 12.4375 C-7.67769531 11.68275391 -7.23039062 10.92800781 -6.76953125 10.15039062 C-4.66853438 6.63323509 -2.56656202 3.20395325 0 0 Z " fill="#40AABF" transform="translate(78,13)"/>
</svg>
