<svg width="18" height="18" viewBox="0 0 18 18" fill="none" xmlns="http://www.w3.org/2000/svg">
<path fill-rule="evenodd" clip-rule="evenodd" d="M9.00001 12.8889C6.12305 12.8889 3.69816 11.3576 2.1693 9.00001C3.69816 6.6424 6.12305 5.11111 9.00001 5.11111C11.8769 5.11111 14.3019 6.6424 15.8307 9.00001C14.3019 11.3576 11.8769 12.8889 9.00001 12.8889ZM9.00001 4C5.59506 4 2.76682 5.89598 1.08107 8.70557C0.972977 8.88572 0.972978 9.11431 1.08107 9.29446C2.76682 12.104 5.59506 14 9.00001 14C12.4049 14 15.2332 12.104 16.919 9.29446C17.027 9.11431 17.027 8.88572 16.919 8.70557C15.2332 5.89598 12.4049 4 9.00001 4ZM9.00001 11.2222C10.1782 11.2222 11.1333 10.2273 11.1333 9C11.1333 7.7727 10.1782 6.77778 9.00001 6.77778C7.8218 6.77778 6.86668 7.7727 6.86668 9C6.86668 10.2273 7.8218 11.2222 9.00001 11.2222Z" fill="#171717"/>
</svg>
