<svg width="18" height="18" viewBox="0 0 18 18" fill="none" xmlns="http://www.w3.org/2000/svg">
<path fill-rule="evenodd" clip-rule="evenodd" d="M16.7492 6.07654C16.999 6.22379 17.075 6.53416 16.9188 6.76976C16.4506 7.47655 15.8941 8.11949 15.2616 8.67951L16.5426 9.8879C16.7508 10.0843 16.7508 10.4029 16.5426 10.5994C16.3343 10.7958 15.9966 10.7958 15.7884 10.5994L14.4412 9.32859C13.592 9.9269 12.6362 10.389 11.596 10.6797L12.0752 12.3667C12.1514 12.635 11.9825 12.9108 11.698 12.9827C11.4135 13.0547 11.1211 12.8954 11.0448 12.6271L10.5565 10.9076C10.0533 10.9886 9.53372 11.0307 9.00001 11.0307C8.4663 11.0307 7.94674 10.9886 7.44354 10.9076L6.95519 12.627C6.87897 12.8954 6.58653 13.0547 6.30202 12.9827C6.0175 12.9109 5.84864 12.635 5.92487 12.3667L6.404 10.6797C5.36385 10.389 4.40803 9.92689 3.55883 9.32857L2.21163 10.5994C2.00335 10.7958 1.66566 10.7958 1.45738 10.5994C1.24911 10.4029 1.24911 10.0843 1.45738 9.88789L2.73848 8.67949C2.10594 8.11947 1.54945 7.47654 1.08114 6.76976C0.925027 6.53416 1.00096 6.22379 1.25074 6.07654C1.50051 5.92928 1.82955 6.00091 1.98566 6.23651C2.49711 7.00839 3.1216 7.691 3.83982 8.25658C3.85136 8.26489 3.86261 8.27371 3.87357 8.28302C5.27624 9.37598 7.0324 10.0246 9.00001 10.0246C11.995 10.0246 14.5002 8.5218 16.0144 6.2365C16.1705 6.00091 16.4995 5.92928 16.7492 6.07654Z" fill="#171717"/>
</svg>
